<svg xmlns="http://www.w3.org/2000/svg" xmlns:xlink="http://www.w3.org/1999/xlink" version="1.1" x="0px" y="0px" viewBox="-18 -18 100 125" enable-background="new -18 -18 100 100" xml:space="preserve"><path d="M49.361,36.126c-1.498-0.056-2.961,0.14-4.354,0.54c1.742-4.753,0.829-10.292-2.849-14.244  C39.542,19.612,35.839,18,31.998,18c-1.317,0-2.612,0.186-3.851,0.542c1.738-4.751,0.825-10.288-2.851-14.238  c-0.563-0.605-1.512-0.641-2.12-0.076c-0.606,0.564-0.641,1.514-0.076,2.12c1.145,1.229,1.936,2.659,2.405,4.165L11.16,23.863  c-1.469-0.575-2.837-1.468-3.982-2.698c-0.563-0.606-1.512-0.639-2.12-0.076c-0.606,0.564-0.641,1.514-0.076,2.12  c1.751,1.882,3.909,3.159,6.212,3.838c0.009,0.002,0.018,0.005,0.027,0.007c1.277,0.374,2.598,0.571,3.922,0.571  c1.292,0,2.586-0.182,3.84-0.542c-0.5,1.361-0.796,2.802-0.849,4.293c-0.133,3.704,1.184,7.235,3.709,9.95  c2.615,2.813,6.318,4.423,10.159,4.423c1.313,0,2.604-0.187,3.839-0.54c-0.497,1.357-0.792,2.798-0.846,4.285  c-0.134,3.704,1.185,7.236,3.71,9.949c0.295,0.32,0.695,0.479,1.098,0.479c0.366,0,0.733-0.132,1.021-0.401  c0.605-0.563,0.64-1.514,0.076-2.119c-1.133-1.217-1.944-2.65-2.422-4.194c0.045-0.033,0.101-0.049,0.143-0.089l14.222-13.237  c1.494,0.587,2.854,1.493,3.979,2.702c0.564,0.609,1.516,0.643,2.119,0.076c0.607-0.564,0.642-1.514,0.078-2.12  C56.495,37.826,53.064,36.259,49.361,36.126z M14.751,24.621l11.25-10.471c-0.101,2.782-1.26,5.526-3.454,7.568  C20.353,23.76,17.533,24.72,14.751,24.621z M21.132,31.485c0.104-2.903,1.333-5.591,3.459-7.57C26.61,22.035,29.241,21,31.998,21  c0.291,0,0.58,0.022,0.868,0.045l-11.728,10.9C21.137,31.792,21.127,31.639,21.132,31.485z M21.742,35.479l14.602-13.569  c0.9,0.393,1.741,0.917,2.51,1.541L23.102,38.107C22.527,37.292,22.069,36.41,21.742,35.479z M25.147,40.303l15.751-14.66  c0.578,0.826,1.035,1.709,1.356,2.63L27.658,41.842C26.756,41.449,25.916,40.925,25.147,40.303z M32.002,42.75  c-0.291,0-0.58-0.021-0.868-0.045L42.857,31.81c0.017,2.937-1.135,5.872-3.447,8.026C37.391,41.715,34.759,42.75,32.002,42.75z   M37.994,49.605c0-0.002,0-0.002,0-0.004c0.104-2.902,1.333-5.592,3.46-7.57s4.914-3.004,7.798-2.907c0.001,0,0.003,0,0.004,0  L37.994,49.605z"/><path d="M32-18C4.386-18-18,4.386-18,32S4.386,82,32,82s50-22.386,50-50S59.614-18,32-18z M64,56.781C64,60.762,60.762,64,56.781,64  H7.218C3.238,64,0,60.762,0,56.781V7.219C0,3.239,3.238,0,7.218,0h49.563C60.762,0,64,3.238,64,7.218V56.781z"/><text x="-18" y="97" fill="#000000" font-size="5px" font-weight="bold" font-family="'Helvetica Neue', Helvetica, Arial-Unicode, Arial, Sans-serif">Created by Adnen Kadri</text><text x="-18" y="102" fill="#000000" font-size="5px" font-weight="bold" font-family="'Helvetica Neue', Helvetica, Arial-Unicode, Arial, Sans-serif">from the Noun Project</text></svg>
