<?xml version="1.0" encoding="utf-8"?>
<!-- Generator: Adobe Illustrator 24.1.0, SVG Export Plug-In . SVG Version: 6.00 Build 0)  -->
<svg version="1.1" id="Layer_1" xmlns="http://www.w3.org/2000/svg" xmlns:xlink="http://www.w3.org/1999/xlink" x="0px" y="0px"
	 viewBox="0 0 100 125" style="enable-background:new 0 0 100 125;" xml:space="preserve">
<style type="text/css">
	.st0{fill:#FFFFFF;stroke:#FFFFFF;stroke-width:2;stroke-miterlimit:10;}
</style>
<circle class="st0" cx="34.1" cy="10.9" r="2"/>
<circle class="st0" cx="48.3" cy="30.7" r="2"/>
<circle class="st0" cx="54.6" cy="24.6" r="2"/>
<circle class="st0" cx="42.6" cy="24.6" r="2"/>
<circle class="st0" cx="59.1" cy="17.7" r="2"/>
<circle class="st0" cx="38.6" cy="17.7" r="2"/>
<circle class="st0" cx="63.9" cy="10.9" r="2"/>
<line class="st0" x1="34.1" y1="10.9" x2="64" y2="10.9"/>
<line class="st0" x1="38.7" y1="17.7" x2="59.2" y2="17.7"/>
<line class="st0" x1="42.7" y1="24.7" x2="54.7" y2="24.7"/>
<ellipse class="st0" cx="34.1" cy="48.9" rx="2" ry="1.8"/>
<ellipse class="st0" cx="48.3" cy="30.7" rx="2" ry="1.8"/>
<ellipse class="st0" cx="54.6" cy="36.3" rx="2" ry="1.8"/>
<ellipse class="st0" cx="42.6" cy="36.3" rx="2" ry="1.8"/>
<ellipse class="st0" cx="59.1" cy="42.7" rx="2" ry="1.8"/>
<ellipse class="st0" cx="38.6" cy="42.7" rx="2" ry="1.8"/>
<ellipse class="st0" cx="63.9" cy="48.9" rx="2" ry="1.8"/>
<line class="st0" x1="34.1" y1="48.9" x2="64" y2="48.9"/>
<line class="st0" x1="38.7" y1="42.6" x2="59.2" y2="42.6"/>
<line class="st0" x1="42.7" y1="36.2" x2="54.7" y2="36.2"/>
<circle class="st0" cx="48.2" cy="69" r="2"/>
<circle class="st0" cx="54.5" cy="62.8" r="2"/>
<circle class="st0" cx="42.5" cy="62.8" r="2"/>
<circle class="st0" cx="59" cy="55.9" r="2"/>
<circle class="st0" cx="38.5" cy="55.9" r="2"/>
<line class="st0" x1="38.5" y1="56" x2="59" y2="56"/>
<line class="st0" x1="42.5" y1="62.9" x2="54.5" y2="62.9"/>
<ellipse class="st0" cx="34" cy="89.2" rx="2" ry="2"/>
<ellipse class="st0" cx="48.2" cy="69" rx="2" ry="2"/>
<ellipse class="st0" cx="54.5" cy="75.3" rx="2" ry="2"/>
<ellipse class="st0" cx="42.5" cy="75.3" rx="2" ry="2"/>
<ellipse class="st0" cx="59" cy="82.3" rx="2" ry="2"/>
<ellipse class="st0" cx="38.5" cy="82.3" rx="2" ry="2"/>
<ellipse class="st0" cx="63.8" cy="89.2" rx="2" ry="2"/>
<line class="st0" x1="34" y1="89.1" x2="63.8" y2="89.1"/>
<line class="st0" x1="38.5" y1="82.2" x2="59" y2="82.2"/>
<line class="st0" x1="42.5" y1="75.2" x2="54.5" y2="75.2"/>
<ellipse class="st0" cx="58.5" cy="95.6" rx="2" ry="2"/>
<ellipse class="st0" cx="38" cy="95.6" rx="2" ry="2"/>
<line class="st0" x1="38" y1="95.5" x2="58.5" y2="95.5"/>
<ellipse class="st0" cx="58.5" cy="4.9" rx="2" ry="2"/>
<ellipse class="st0" cx="38" cy="4.9" rx="2" ry="2"/>
<line class="st0" x1="38" y1="4.8" x2="58.5" y2="4.8"/>
</svg>
